<svg xmlns="http://www.w3.org/2000/svg">
  <symbol id="unicorn" viewBox="0 0 327 280"><title>Untitled</title><g transform="translate(.552 1.61)" fill="none" fill-rule="evenodd"><path d="M97.38 134.89c-22.464-55.884-57.197-39.15-76.074-31.167-8.08 3.417-7.853 10.274-2.945 19.387-7.784.46-37.567 47.546 2.7 39.755 1.998 31.014 20.173 35.71 29.203 12.516 29.03 10.847-2.434-62.155 36.32-36.32l10.797-4.17z" fill="#F59"/><g fill="#800066"><path d="M29.65 116.484c-15.35 10.07-8.857 31.828-13.743 33.13-10.492 2.794-6.228-23.115 13.742-33.13zM68.92 105.003c-16.395-8.26-31.992 8.244-35.562 4.663-7.665-7.69 16.904-16.95 35.562-4.663zM31.638 146.238c-8.26 16.396 8.244 31.992 4.663 35.562-7.688 7.666-16.95-16.903-4.662-35.562zM58.874 121.307C41.44 127.06 45.498 139.647 40.46 139.2c-5.703-.51-3.468-13.387 18.414-17.893zM85.922 126.617c-13.7-12.22-22.572-2.415-24.7-7-2.413-5.195 9.857-9.698 24.7 7zM43.637 159.43c4.072 3.66 8.71 6.547 17.178 3.926-7.328 6.348-13.775 6.69-17.178-3.927z"/></g><path d="M78.03 257.015c4.85-23.434 14.792-35.066 28.63-50.496-15.145-9.172-26.29-28.506-27.2-46.316-.756-14.778 3.475-34.753 33.795-36.11 22.576-1.01 40.507 6.533 55.68-8.125 18.695-18.063 27.516-53.28 80.19-69.615 18.655-5.785 62.828 3.5 65.7 32.668.867 8.793-16.53.315-16.68 4.224-.342 8.927 8.154 16.32 8.244 28.354.202 27.292-13.946 45.17-39.218 43.382-21.408-1.514-13.745-39.268-23.252-44.422-6.29-.49-11.33 13.11-15.88 27.635-1.938 6.18-2.114 9.52-.762 15.05 4.29 17.556-4.92 29.287-16.154 40.607 13.67 19.76 38.822 24.325 59.345 31.408l-28.806 31.408c-21.478-13.247-36.41-30.72-44.943-52.752-22.762 12.677-48.564 16.418-73.053 10.585-11.02 11.312-8.698 33.4-6.768 62.818l-38.87-20.303z" stroke="#340040" stroke-width=".5" fill="#F1E9FF"/><path d="M249.987 218.7l-20.22 29.706c3.708 2.924 7.69 5.647 11.9 8.243l28.772-31.418c-6.534-2.255-13.502-4.217-20.453-6.533zm-170.31 31.806c-.587 2.083-1.152 4.213-1.632 6.532l38.883 20.297c-.447-6.813-.926-13.224-1.244-19.208l-36.006-7.62z" fill="#170B28"/><path d="M171.442 113.403c-.808.882-1.644 1.752-2.488 2.567-15.172 14.658-33.105 7.077-55.68 8.087-1.128.05-2.133.21-3.19.312-1.812 27.924-.512 58.586 37.873 65.556l5.755 26.985c.886 3.698 16.532 1.666 15.397-2.332l-8.166-27.996c18.94-8.17 31.937-37.328 10.498-73.18z" fill="#DE87CD"/><path d="M166.62 117.992c-13 10.498-28.03 6.476-46.193 6.065.14 19.88 5.6 51.267 29.396 49.07 24.147-2.227 23.864-34.67 16.798-55.135z" fill="#501644"/><g fill="#405"><path d="M115.05 127.14a2.59 2.59 0 0 1 2.595 2.596 2.59 2.59 0 0 1-2.596 2.596 2.59 2.59 0 0 1-2.597-2.596 2.59 2.59 0 0 1 2.596-2.596zM115.785 137.83a2.59 2.59 0 0 1 2.596 2.596 2.59 2.59 0 0 1-2.595 2.596 2.59 2.59 0 0 1-2.596-2.596 2.59 2.59 0 0 1 2.595-2.596zM116.836 147.117a2.59 2.59 0 0 1 2.596 2.596 2.59 2.59 0 0 1-2.596 2.596 2.59 2.59 0 0 1-2.596-2.597 2.59 2.59 0 0 1 2.596-2.596zM119.114 157.07a2.59 2.59 0 0 1 2.596 2.597 2.59 2.59 0 0 1-2.596 2.596 2.59 2.59 0 0 1-2.596-2.596 2.59 2.59 0 0 1 2.596-2.596zM153.217 177.54a2.59 2.59 0 0 1 2.596 2.595 2.59 2.59 0 0 1-2.596 2.596 2.59 2.59 0 0 1-2.595-2.595 2.59 2.59 0 0 1 2.595-2.596zM142.527 177.048a2.59 2.59 0 0 1 2.596 2.596 2.59 2.59 0 0 1-2.596 2.596 2.59 2.59 0 0 1-2.596-2.596 2.59 2.59 0 0 1 2.597-2.596zM131.837 171.894a2.59 2.59 0 0 1 2.596 2.596 2.59 2.59 0 0 1-2.596 2.596 2.59 2.59 0 0 1-2.596-2.596 2.59 2.59 0 0 1 2.597-2.596zM123.846 165.376a2.59 2.59 0 0 1 2.596 2.596 2.59 2.59 0 0 1-2.596 2.596 2.59 2.59 0 0 1-2.596-2.596 2.59 2.59 0 0 1 2.596-2.596zM163.417 172.63a2.59 2.59 0 0 1 2.596 2.597 2.59 2.59 0 0 1-2.596 2.595 2.59 2.59 0 0 1-2.596-2.595 2.59 2.59 0 0 1 2.597-2.596zM170.357 164.64a2.59 2.59 0 0 1 2.596 2.596 2.59 2.59 0 0 1-2.596 2.596 2.59 2.59 0 0 1-2.596-2.596 2.59 2.59 0 0 1 2.597-2.596zM174.598 155.422a2.59 2.59 0 0 1 2.596 2.596 2.59 2.59 0 0 1-2.596 2.596 2.59 2.59 0 0 1-2.596-2.596 2.59 2.59 0 0 1 2.596-2.596zM176.07 145.468a2.59 2.59 0 0 1 2.596 2.596 2.59 2.59 0 0 1-2.596 2.596 2.59 2.59 0 0 1-2.596-2.596 2.59 2.59 0 0 1 2.596-2.596zM175.58 135.514a2.59 2.59 0 0 1 2.595 2.596 2.59 2.59 0 0 1-2.596 2.596 2.59 2.59 0 0 1-2.596-2.596 2.59 2.59 0 0 1 2.595-2.596zM174.353 126.787a2.59 2.59 0 0 1 2.595 2.596 2.59 2.59 0 0 1-2.595 2.595 2.59 2.59 0 0 1-2.596-2.595 2.59 2.59 0 0 1 2.596-2.596zM170.917 117.57a2.59 2.59 0 0 1 2.596 2.595 2.59 2.59 0 0 1-2.596 2.596 2.59 2.59 0 0 1-2.596-2.595 2.59 2.59 0 0 1 2.597-2.596z"/></g><path d="M269.602 48.932s14.58-20.2 22.767-16.017c3.313 1.693-6.844 21.153-6.844 21.153l-15.924-5.136z" fill="#800066"/><path d="M248.82 80.042l-5.6 5.443 12.91 27.296-8.088 4.667c.515 1.686.786 3.412 1.09 5.133 13.948-8.833 40.167-13.11 57.158-12.443-.54-5.824-1.32-7.744-3.5-12.365-11.812 1.664-27.11 3.11-39.816 10.888L248.82 80.042z" fill="#C83771"/><rect fill="#000200" transform="rotate(-22.993 269.817 89.685)" x="265.929" y="84.863" width="7.777" height="9.643" rx="3.888"/><path d="M272.674 59.086l14.22 13.378S327.938 4.124 325.29.54c-2.646-3.585-52.616 58.546-52.616 58.546z" stroke="#000" fill="#892CA0"/><path d="M261.885 44.736c-4.852-.007-9.256.548-12.754 1.633-36.054 11.18-51.497 31.13-63.69 48.447-25.38 31.252 13.974 47.75 16.098 17.73 14.194 11.892 23.708 10.263 23.02-20.84 7.555 7.603 14.4 10.046 18.663-6.222l12.946 27.3-8.106 4.674c.514 1.684.805 3.403 1.108 5.124 13.95-8.833 40.13-13.113 57.122-12.447-.54-5.824-1.303-7.743-3.484-12.363-11.812 1.664-27.127 3.108-39.832 10.886L248.82 80.042c3.363-9.06 10.897-15.383 14.252-10.66 4.272 6.018 9.563 7.45 14.75 7.063 9.767-.73 15.247 12.253 18.436 11.373l2.255-.622c-.184-1.17-.298-2.858-.39-3.966.15-3.91 17.587 4.594 16.72-4.2-2.334-23.7-31.935-34.266-52.958-34.294z" fill="#F59"/><g fill="#800066"><path d="M184.888 101.484c.73 6.034 1.62 15.407 10.47 16.06-15.75 8.375-13.2-7.988-10.47-16.06zM225.638 66.333c.73 6.034 1.62 15.407 10.47 16.06-15.75 8.375-13.2-7.988-10.47-16.06zM201.84 91.996c.73 6.034 1.033 13.887 7.982 16.06-12.017.754-10.71-7.988-7.98-16.06zM215.883 95.216c-.365 3.66.607 10.07-4.7 11.948 10.072.595 7.71-6.592 4.7-11.948zM268.55 51.335c2.73 5.432 6.738 13.95 15.285 11.572-11.988 13.21-15.122-3.052-15.284-11.572z"/><path d="M283.835 62.907c5.674 2.18 12.754 5.59 17.926.467-4.834 10.698-12.55 5.94-18.318-.042-.147-.153.393-.425.393-.425zM265.555 59.586c1.088 2.167 2.687 5.564 6.096 4.615-4.78 5.27-6.03-1.216-6.095-4.614z"/></g><path d="M261.885 77.086c0-.166.87-7.202 1.522-16.177 4.766-15.385 2.17-38.635-4.944-38.57-8.114.072-9.523 23.24-5.733 39.036.735 8.637 1.686 15.372 1.69 15.71h7.465z" fill="#800066"/><path d="M263.362 61.844l-10.576.467c.226 2.584.472 4.444.7 6.533l9.254-.077c.212-2.198.416-4.19.622-6.922z" fill="#C83771"/><g><path d="M260.98 106.36a6.957 6.957 0 0 1 6.972 6.972 6.957 6.957 0 0 1-6.972 6.972 6.957 6.957 0 0 1-6.972-6.972 6.957 6.957 0 0 1 6.972-6.97z" fill="#000200"/><path d="M260.98 106.954a6.365 6.365 0 0 1 6.38 6.378 6.365 6.365 0 0 1-6.38 6.38 6.365 6.365 0 0 1-6.38-6.38 6.365 6.365 0 0 1 6.38-6.378z" fill="#501644"/></g></g>
</symbol>
</svg>